<svg xmlns="http://www.w3.org/2000/svg" width="1290" height="524" viewBox="0 0 1290 524" role="img" aria-label="Neural networks and immediate neighbors: predicted columns, schematic vertical spacing" style="font-family:Segoe UI,Arial,sans-serif;background:#10171e"><rect width="100%" height="100%" fill="#10171e"/><text x="30" y="35" fill="#edf3f7" font-size="23" font-weight="600">Neural networks and immediate neighbors</text><text x="30" y="63" fill="#afc3d0" font-size="14">Requested changes · draft · Base research costs · Vertical spacing schematic</text><defs><marker id="arrow" viewBox="0 0 10 10" refX="9" refY="5" markerWidth="5" markerHeight="5" orient="auto-start-reverse"><path d="M 0 0 L 10 5 L 0 10 z" fill="#7993a5"/></marker></defs><text x="30" y="108" fill="#b9cdd9" font-size="15">COLUMN 4</text><line x1="17" x2="17" y1="125" y2="494" stroke="#253541"/><text x="282" y="108" fill="#b9cdd9" font-size="15">COLUMN 5</text><line x1="269" x2="269" y1="125" y2="494" stroke="#253541"/><text x="534" y="108" fill="#b9cdd9" font-size="15">COLUMN 6</text><line x1="521" x2="521" y1="125" y2="494" stroke="#253541"/><text x="786" y="108" fill="#b9cdd9" font-size="15">COLUMN 7</text><line x1="773" x2="773" y1="125" y2="494" stroke="#253541"/><text x="1038" y="108" fill="#b9cdd9" font-size="15">COLUMN 8</text><line x1="1025" x2="1025" y1="125" y2="494" stroke="#253541"/><g class="links"><path data-from="AdvancedNeuralNetworks" data-to="AdvancedMissileWarfareDoctrine" d="M252,186 C643.5,186 643.5,186 1035,186" fill="none" stroke="#7993a5" stroke-width="1.3" opacity="0.55" marker-end="url(#arrow)"/><path data-from="AdvancedNeuralNetworks" data-to="Neutronics" d="M252,186 C517.5,186 517.5,298 783,298" fill="none" stroke="#7993a5" stroke-width="1.3" opacity="0.55" marker-end="url(#arrow)"/><path data-from="AdvancedNeuralNetworks" data-to="QuantumComputing" d="M252,186 C517.5,186 517.5,186 783,186" fill="none" stroke="#7993a5" stroke-width="1.3" opacity="0.55" marker-end="url(#arrow)"/><path data-from="AdvancedNeuralNetworks" data-to="SelfRepairingSoftware" d="M252,186 C391.5,186 391.5,186 531,186" fill="none" stroke="#7993a5" stroke-width="1.3" opacity="0.55" marker-end="url(#arrow)"/></g><g class="node" data-tech="AdvancedMissileWarfareDoctrine" role="button" tabindex="0" aria-label="Advanced Missile Warfare Doctrine, column 8, base cost 30000"><title>AdvancedMissileWarfareDoctrine&#10;Prerequisites: MissileWarfareDoctrine, AdvancedChemicalRocketry, AdvancedNeuralNetworks&#10;Cost phase: column 8; final: 8</title><rect x="1038" y="138" width="222" height="96" rx="6" fill="#1b2a34" stroke="#354854" stroke-width="1"/><rect x="1038" y="145" width="4" height="82" rx="2" fill="#dea180"/><text x="1051" y="162" fill="#e7eff4" font-size="14">Advanced Missile Warfare</text><text x="1051" y="180" fill="#e7eff4" font-size="14">Doctrine</text><text x="1051" y="221" fill="#b6cbd7" font-size="12">30,000 RP · +2 off-view prerequisites</text></g><g class="node" data-tech="AdvancedNeuralNetworks" role="button" tabindex="0" aria-label="Advanced Neural Networks, column 4, base cost 2500"><title>AdvancedNeuralNetworks&#10;Prerequisites: None&#10;Cost phase: column 4; final: 4</title><rect x="30" y="138" width="222" height="96" rx="6" fill="#1b2a34" stroke="#354854" stroke-width="1"/><rect x="30" y="145" width="4" height="82" rx="2" fill="#95c885"/><text x="43" y="162" fill="#e7eff4" font-size="14">Advanced Neural Networks</text><text x="43" y="221" fill="#b6cbd7" font-size="12">2,500 RP</text></g><g class="node" data-tech="MissiontoMars" role="button" tabindex="0" aria-label="Mission to Mars, column 4, base cost 2500"><title>MissiontoMars&#10;Prerequisites: OutpostHabs, Skywatch&#10;Cost phase: column 4; final: 4</title><rect x="30" y="362" width="222" height="96" rx="6" fill="#1b2a34" stroke="#354854" stroke-width="1"/><rect x="30" y="369" width="4" height="82" rx="2" fill="#8bb7e3"/><text x="43" y="386" fill="#e7eff4" font-size="14">Mission to Mars</text><text x="43" y="445" fill="#b6cbd7" font-size="12">2,500 RP · +2 off-view prerequisites</text></g><g class="node" data-tech="Neutronics" role="button" tabindex="0" aria-label="Neutronics, column 7, base cost 15000"><title>Neutronics&#10;Prerequisites: AdvancedAtomicManipulation, AdvancedNeuralNetworks, ParticleCannon&#10;Cost phase: column 7; final: 7</title><rect x="786" y="250" width="222" height="96" rx="6" fill="#1b2a34" stroke="#354854" stroke-width="1"/><rect x="786" y="257" width="4" height="82" rx="2" fill="#c2a6dc"/><text x="799" y="274" fill="#e7eff4" font-size="14">Neutronics</text><text x="799" y="333" fill="#b6cbd7" font-size="12">15,000 RP · +2 off-view prerequisites</text></g><g class="node" data-tech="PhotonicComputing" role="button" tabindex="0" aria-label="Photonic Computing, column 4, base cost 1500"><title>PhotonicComputing&#10;Prerequisites: None&#10;Cost phase: column 4; final: 4</title><rect x="30" y="250" width="222" height="96" rx="6" fill="#1b2a34" stroke="#354854" stroke-width="1"/><rect x="30" y="257" width="4" height="82" rx="2" fill="#95c885"/><text x="43" y="274" fill="#e7eff4" font-size="14">Photonic Computing</text><text x="43" y="333" fill="#b6cbd7" font-size="12">1,500 RP</text></g><g class="node" data-tech="QuantumComputing" role="button" tabindex="0" aria-label="Quantum Computing, column 7, base cost 15000"><title>QuantumComputing&#10;Prerequisites: AdvancedAtomicManipulation, AdvancedNeuralNetworks, AdvancedHeatManagementConcepts&#10;Cost phase: column 7; final: 7</title><rect x="786" y="138" width="222" height="96" rx="6" fill="#1b2a34" stroke="#354854" stroke-width="1"/><rect x="786" y="145" width="4" height="82" rx="2" fill="#95c885"/><text x="799" y="162" fill="#e7eff4" font-size="14">Quantum Computing</text><text x="799" y="221" fill="#b6cbd7" font-size="12">15,000 RP · +2 off-view prerequisites</text></g><g class="node" data-tech="SelfRepairingSoftware" role="button" tabindex="0" aria-label="Self-Repairing Software, column 6, base cost 10000"><title>SelfRepairingSoftware&#10;Prerequisites: AdvancedNeuralNetworks&#10;Cost phase: column 6; final: 6</title><rect x="534" y="138" width="222" height="96" rx="6" fill="#1b2a34" stroke="#354854" stroke-width="1"/><rect x="534" y="145" width="4" height="82" rx="2" fill="#95c885"/><text x="547" y="162" fill="#e7eff4" font-size="14">Self-Repairing Software</text><text x="547" y="221" fill="#b6cbd7" font-size="12">10,000 RP</text></g><text x="30" y="510" fill="#91aaba" font-size="12">Offline preview · All 149 global technologies modeled · 7 shown · Current source date 2026-09-23</text></svg>